# xmcd CD database file
# Copyright (C) 1995-1998 Ti Kan
#
# Track frame offsets:
#	150
#	12742
#	25048
#	38853
#	52944
#	65917
#	78000
#	91001
#	104106
#	115728
#	127164
#	142600
#	155567
#	167376
#	179743
#	192141
#	205335
#	219121
#	231679
#	246529
#	260571
#	275016
#	288621
#	299209
#	312157
#
# Disc length: 4327 seconds
#
# Revision: 2
# Processed by: cddbd v1.4b41PL2 Copyright (c) Steve Scherf et al.
# Submitted via: CDex 1.30Release
#
DISCID=8210e519
DTITLE=Bill Monroe - The Early Years - 1940-1947
DYEAR=1900
DGENRE=Country
TTITLE0=Mule Skinner Blues
TTITLE1=No Letter In The Mail
TTITLE2=Six White Horses
TTITLE3=Dog House Blues
TTITLE4=I Wonder If You Feel The Way I Do
TTITLE5=Katy Hill
TTITLE6=Tennessee Blues
TTITLE7=Blue Yodel Number 7 (Anniversary Blue Yodel)
TTITLE8=Orange Blossom Special
TTITLE9=Honkey Tonk Swing
TTITLE10=In The Pines
TTITLE11=Backup And Push
TTITLE12=Rocky Road Blues
TTITLE13=Kentucky Waltz
TTITLE14=Footprints In The Snow
TTITLE15=Heavy Traffic Ahead
TTITLE16=Blue Moon Of Kentucky
TTITLE17=Toy Heart
TTITLE18=Mother's Only Sleeping
TTITLE19=Blue Yodel Number 4
TTITLE20=Little Cabin Home On The Hill
TTITLE21=My Rose Of Old Kentucky
TTITLE22=Blue Grass Breakdown
TTITLE23=Sweetheart, You Done Me Wrong
TTITLE24=Molly And Tenbrooks (The Racehorse Song)
EXTD=ID3G:   2
EXTT0=
EXTT1=
EXTT2=
EXTT3=
EXTT4=
EXTT5=
EXTT6=
EXTT7=
EXTT8=
EXTT9=
EXTT10=
EXTT11=
EXTT12=
EXTT13=
EXTT14=
EXTT15=
EXTT16=
EXTT17=
EXTT18=
EXTT19=
EXTT20=
EXTT21=
EXTT22=
EXTT23=
EXTT24=
PLAYORDER=
